<svg width="80" height="80" viewBox="0 0 80 80" fill="none" xmlns="http://www.w3.org/2000/svg">
<g id="color_lens_24px">
<path id="icon/image/color_lens_24px" fill-rule="evenodd" clip-rule="evenodd" d="M6.6665 40C6.6665 58.3666 21.6332 73.3333 39.9998 73.3333C44.5998 73.3333 48.3332 69.6 48.3332 65C48.3332 62.9666 47.5665 61 46.1998 59.4333C45.9332 59.1 45.7665 58.7333 45.7665 58.3333C45.7665 57.4 46.4998 56.6666 47.4332 56.6666H53.3332C64.3665 56.6666 73.3332 47.7 73.3332 36.6666C73.3332 20.1333 58.3665 6.66663 39.9998 6.66663C21.6332 6.66663 6.6665 21.6333 6.6665 40ZM13.3332 40C13.3332 25.3 25.2998 13.3333 39.9998 13.3333C54.6998 13.3333 66.6665 23.8 66.6665 36.6666C66.6665 44.0333 60.6998 49.9999 53.3332 49.9999H47.4332C42.8332 49.9999 39.0998 53.7333 39.0998 58.3333C39.0998 60.3333 39.8332 62.2999 41.1998 63.8333C41.3998 64.0666 41.6665 64.4666 41.6665 64.9999C41.6665 65.9333 40.9332 66.6666 39.9998 66.6666C25.2998 66.6666 13.3332 54.6999 13.3332 40ZM21.6665 33.3333C18.9051 33.3333 16.6665 35.5719 16.6665 38.3333C16.6665 41.0947 18.9051 43.3333 21.6665 43.3333C24.4279 43.3333 26.6665 41.0947 26.6665 38.3333C26.6665 35.5719 24.4279 33.3333 21.6665 33.3333ZM26.6665 25C26.6665 22.2385 28.9051 20 31.6665 20C34.4279 20 36.6665 22.2385 36.6665 25C36.6665 27.7614 34.4279 30 31.6665 30C28.9051 30 26.6665 27.7614 26.6665 25ZM48.3332 20C45.5717 20 43.3332 22.2385 43.3332 25C43.3332 27.7614 45.5717 30 48.3332 30C51.0946 30 53.3332 27.7614 53.3332 25C53.3332 22.2385 51.0946 20 48.3332 20ZM53.3332 38.3333C53.3332 35.5719 55.5717 33.3333 58.3332 33.3333C61.0946 33.3333 63.3332 35.5719 63.3332 38.3333C63.3332 41.0947 61.0946 43.3333 58.3332 43.3333C55.5717 43.3333 53.3332 41.0947 53.3332 38.3333Z" fill="white" fill-opacity="0.54"/>
</g>
</svg>
