<svg width="38" height="38" viewBox="0 0 38 38" fill="none" xmlns="http://www.w3.org/2000/svg">
<path fill-rule="evenodd" clip-rule="evenodd" d="M18.5821 0C8.31948 0 0 8.31948 0 18.5821C0 28.8447 8.31948 37.1642 18.5821 37.1642C28.8447 37.1642 37.1642 28.8447 37.1642 18.5821C37.1642 8.31948 28.8447 0 18.5821 0ZM14.4966 8.73152C15.5537 8.68341 15.8915 8.67164 18.583 8.67164H18.5799C21.2723 8.67164 21.6088 8.68341 22.666 8.73152C23.721 8.77983 24.4416 8.94687 25.0734 9.19195C25.7258 9.44487 26.2771 9.78348 26.8284 10.3348C27.3797 10.8856 27.7183 11.4385 27.9722 12.0904C28.2159 12.7205 28.3831 13.4407 28.4327 14.4957C28.4802 15.5529 28.4925 15.8907 28.4925 18.5822C28.4925 21.2737 28.4802 21.6107 28.4327 22.6678C28.3831 23.7225 28.2159 24.4428 27.9722 25.0732C27.7183 25.7248 27.3797 26.2777 26.8284 26.8286C26.2777 27.3799 25.7256 27.7193 25.074 27.9724C24.4435 28.2175 23.7225 28.3846 22.6674 28.4329C21.6103 28.481 21.2735 28.4927 18.5818 28.4927C15.8904 28.4927 15.5529 28.481 14.4957 28.4329C13.4409 28.3846 12.7205 28.2175 12.09 27.9724C11.4385 27.7193 10.8856 27.3799 10.335 26.8286C9.7839 26.2777 9.44529 25.7248 9.19195 25.073C8.94707 24.4428 8.78004 23.7227 8.73152 22.6676C8.68362 21.6105 8.67164 21.2737 8.67164 18.5822C8.67164 15.8907 8.68403 15.5527 8.73131 14.4955C8.7788 13.4409 8.94604 12.7205 9.19174 12.0902C9.4457 11.4385 9.78431 10.8856 10.3356 10.3348C10.8864 9.78369 11.4394 9.44508 12.0912 9.19195C12.7213 8.94687 13.4415 8.77983 14.4966 8.73152Z" fill="#26495C"/>
<path fill-rule="evenodd" clip-rule="evenodd" d="M17.694 10.4576C17.8667 10.4573 18.0524 10.4574 18.2528 10.4575L18.5831 10.4576C21.2292 10.4576 21.5428 10.4671 22.5878 10.5145C23.5541 10.5587 24.0785 10.7202 24.4278 10.8558C24.8903 11.0355 25.2201 11.2502 25.5667 11.5971C25.9136 11.9439 26.1283 12.2743 26.3084 12.7368C26.444 13.0857 26.6057 13.6101 26.6497 14.5764C26.6971 15.6212 26.7075 15.935 26.7075 18.5799C26.7075 21.2247 26.6971 21.5386 26.6497 22.5833C26.6055 23.5496 26.444 24.074 26.3084 24.423C26.1287 24.8855 25.9136 25.2148 25.5667 25.5614C25.2198 25.9083 24.8905 26.123 24.4278 26.3027C24.0789 26.4389 23.5541 26.6 22.5878 26.6442C21.543 26.6917 21.2292 26.702 18.5831 26.702C15.9368 26.702 15.6231 26.6917 14.5784 26.6442C13.6121 26.5996 13.0877 26.4381 12.7381 26.3025C12.2756 26.1228 11.9453 25.9081 11.5984 25.5612C11.2515 25.2144 11.0368 24.8848 10.8568 24.4221C10.7211 24.0732 10.5595 23.5488 10.5155 22.5825C10.468 21.5378 10.4585 21.2239 10.4585 18.5774C10.4585 15.9309 10.468 15.6187 10.5155 14.5739C10.5597 13.6077 10.7211 13.0832 10.8568 12.7339C11.0364 12.2714 11.2515 11.941 11.5984 11.5942C11.9453 11.2473 12.2756 11.0326 12.7381 10.8525C13.0875 10.7163 13.6121 10.5552 14.5784 10.5108C15.4926 10.4695 15.8469 10.4571 17.694 10.4551V10.4576ZM23.8733 12.1031C23.2167 12.1031 22.684 12.6352 22.684 13.292C22.684 13.9485 23.2167 14.4812 23.8733 14.4812C24.5298 14.4812 25.0625 13.9485 25.0625 13.292C25.0625 12.6354 24.5298 12.1027 23.8733 12.1027V12.1031ZM13.4936 18.5821C13.4936 15.7715 15.7723 13.4928 18.5829 13.4927C21.3935 13.4927 23.6717 15.7715 23.6717 18.5821C23.6717 21.3928 21.3937 23.6706 18.5831 23.6706C15.7724 23.6706 13.4936 21.3928 13.4936 18.5821Z" fill="#26495C"/>
<path fill-rule="evenodd" clip-rule="evenodd" d="M18.5828 15.2786C20.4072 15.2786 21.8863 16.7575 21.8863 18.5821C21.8863 20.4064 20.4072 21.8856 18.5828 21.8856C16.7582 21.8856 15.2793 20.4064 15.2793 18.5821C15.2793 16.7575 16.7582 15.2786 18.5828 15.2786V15.2786Z" fill="#26495C"/>
</svg>
