<svg width="38" height="38" viewBox="0 0 38 38" fill="none" xmlns="http://www.w3.org/2000/svg">
<path fill-rule="evenodd" clip-rule="evenodd" d="M18.5821 0C8.31948 0 0 8.31948 0 18.5821C0 28.8447 8.31948 37.1642 18.5821 37.1642C28.8447 37.1642 37.1642 28.8447 37.1642 18.5821C37.1642 8.31948 28.8447 0 18.5821 0ZM18.0646 15.7467L18.0256 15.1038C17.9086 13.4373 18.9354 11.9151 20.5601 11.3246C21.158 11.1146 22.1719 11.0884 22.8347 11.2721C23.0947 11.3508 23.5886 11.6133 23.9396 11.8495L24.5764 12.2825L25.2783 12.0594C25.6683 11.9413 26.1882 11.7445 26.4221 11.6133C26.6431 11.4952 26.8381 11.4296 26.8381 11.4689C26.8381 11.692 26.3571 12.4531 25.9542 12.873C25.4083 13.4635 25.5643 13.516 26.6691 13.1223C27.332 12.8992 27.345 12.8992 27.215 13.1486C27.137 13.2798 26.7341 13.7391 26.3052 14.159C25.5773 14.8807 25.5383 14.9594 25.5383 15.563C25.5383 16.4947 25.0964 18.4368 24.6544 19.4997C23.8356 21.4942 22.0809 23.5544 20.3262 24.591C17.8566 26.0476 14.5682 26.415 11.7996 25.5621C10.8768 25.2734 9.29105 24.5385 9.29105 24.4073C9.29105 24.3679 9.77197 24.3155 10.3569 24.3023C11.5787 24.2761 12.8005 23.9349 13.8403 23.3313L14.5422 22.9114L13.7363 22.6358C12.5925 22.2422 11.5657 21.3367 11.3057 20.4838C11.2277 20.2082 11.2537 20.1951 11.9816 20.1951L12.7355 20.182L12.0986 19.8802C11.3447 19.4997 10.6558 18.8567 10.3179 18.2006C10.0709 17.7282 9.75897 16.5341 9.84995 16.4422C9.87595 16.4028 10.1489 16.4816 10.4609 16.5866C11.3577 16.9146 11.4747 16.8359 10.9548 16.2847C9.97993 15.2875 9.68098 13.8047 10.1489 12.4006L10.3699 11.7707L11.2277 12.6237C12.9824 14.3427 15.0491 15.3662 17.4147 15.668L18.0646 15.7467Z" fill="#26495C"/>
</svg>
